<svg width="390" height="70" viewBox="0 0 390 70" fill="none" xmlns="http://www.w3.org/2000/svg">
<path d="M15.528 69C14.568 69 13.8 68.744 13.224 68.232C12.712 67.656 12.36 66.952 12.168 66.12L0.744 4.584C0.744 4.392 0.712 4.232 0.648 4.10399C0.648 3.976 0.648 3.88 0.648 3.816C0.648 3.24 0.84 2.76 1.224 2.376C1.672 1.992 2.152 1.8 2.664 1.8H11.112C12.712 1.8 13.608 2.44 13.8 3.72L21.768 47.208L30.408 19.08C30.6 18.568 30.92 18.056 31.368 17.544C31.88 16.968 32.616 16.68 33.576 16.68H38.76C39.784 16.68 40.52 16.968 40.968 17.544C41.416 18.056 41.704 18.568 41.832 19.08L50.568 47.112L58.536 3.72C58.728 2.44 59.624 1.8 61.224 1.8H69.672C70.184 1.8 70.632 1.992 71.016 2.376C71.4 2.76 71.592 3.24 71.592 3.816C71.592 3.88 71.592 3.976 71.592 4.10399C71.592 4.232 71.56 4.392 71.496 4.584L60.072 66.12C59.944 66.952 59.592 67.656 59.016 68.232C58.44 68.744 57.672 69 56.712 69H50.28C49.32 69 48.552 68.744 47.976 68.232C47.464 67.72 47.112 67.176 46.92 66.6L36.168 34.536L25.416 66.6C25.16 67.176 24.776 67.72 24.264 68.232C23.752 68.744 22.984 69 21.96 69H15.528ZM85.167 69C84.527 69 83.983 68.776 83.535 68.328C83.087 67.88 82.863 67.336 82.863 66.696V4.2C82.863 3.496 83.087 2.92 83.535 2.472C83.983 2.024 84.527 1.8 85.167 1.8H127.407C128.111 1.8 128.687 2.024 129.135 2.472C129.583 2.92 129.807 3.496 129.807 4.2V10.536C129.807 11.176 129.583 11.72 129.135 12.168C128.687 12.616 128.111 12.84 127.407 12.84H95.823V29.832H125.295C125.999 29.832 126.575 30.056 127.023 30.504C127.471 30.888 127.695 31.432 127.695 32.136V38.088C127.695 38.792 127.471 39.368 127.023 39.816C126.575 40.2 125.999 40.392 125.295 40.392H95.823V57.96H128.175C128.879 57.96 129.455 58.184 129.903 58.632C130.351 59.08 130.575 59.656 130.575 60.36V66.696C130.575 67.336 130.351 67.88 129.903 68.328C129.455 68.776 128.879 69 128.175 69H85.167ZM138.454 69C137.942 69 137.462 68.808 137.014 68.424C136.63 68.04 136.438 67.56 136.438 66.984C136.438 66.728 136.502 66.44 136.63 66.12L159.766 4.2C159.958 3.56 160.31 3.016 160.822 2.568C161.398 2.056 162.166 1.8 163.126 1.8H173.59C174.55 1.8 175.286 2.056 175.798 2.568C176.31 3.016 176.694 3.56 176.95 4.2L200.086 66.12C200.15 66.44 200.182 66.728 200.182 66.984C200.182 67.56 199.99 68.04 199.606 68.424C199.222 68.808 198.774 69 198.262 69H189.91C189.014 69 188.342 68.808 187.894 68.424C187.51 67.976 187.254 67.56 187.126 67.176L182.614 55.464H154.102L149.59 67.176C149.462 67.56 149.174 67.976 148.726 68.424C148.342 68.808 147.702 69 146.806 69H138.454ZM157.462 44.424H179.254L168.31 14.76L157.462 44.424ZM211.448 69C210.808 69 210.264 68.776 209.816 68.328C209.368 67.88 209.144 67.336 209.144 66.696V4.2C209.144 3.496 209.368 2.92 209.816 2.472C210.264 2.024 210.808 1.8 211.448 1.8H236.312C244.056 1.8 250.168 3.592 254.648 7.17599C259.128 10.76 261.368 15.976 261.368 22.824C261.368 27.56 260.184 31.496 257.816 34.632C255.512 37.768 252.408 40.04 248.504 41.448L262.52 65.928C262.712 66.312 262.808 66.664 262.808 66.984C262.808 67.56 262.584 68.04 262.136 68.424C261.752 68.808 261.304 69 260.792 69H252.056C250.968 69 250.136 68.712 249.56 68.136C248.984 67.56 248.536 66.984 248.216 66.408L235.832 43.656H222.488V66.696C222.488 67.336 222.264 67.88 221.816 68.328C221.432 68.776 220.888 69 220.184 69H211.448ZM222.488 32.808H236.024C239.928 32.808 242.84 31.944 244.76 30.216C246.68 28.424 247.64 25.928 247.64 22.728C247.64 19.528 246.68 17.032 244.76 15.24C242.904 13.384 239.992 12.456 236.024 12.456H222.488V32.808Z" fill="white"/>
<path d="M297.066 69.96C291.114 69.96 286.122 69.096 282.09 67.368C278.122 65.576 275.082 63.272 272.97 60.456C270.922 57.576 269.834 54.568 269.706 51.432C269.706 50.856 269.898 50.376 270.282 49.992C270.666 49.608 271.146 49.416 271.722 49.416H280.266C281.098 49.416 281.706 49.608 282.09 49.992C282.538 50.312 282.922 50.728 283.242 51.24C283.626 52.456 284.362 53.672 285.45 54.888C286.538 56.04 288.01 57 289.866 57.768C291.786 58.536 294.186 58.92 297.066 58.92C301.674 58.92 305.098 58.152 307.338 56.616C309.642 55.08 310.794 53 310.794 50.376C310.794 48.52 310.186 47.048 308.97 45.96C307.754 44.808 305.866 43.784 303.306 42.888C300.81 41.928 297.482 40.936 293.322 39.912C288.522 38.76 284.49 37.384 281.226 35.784C278.026 34.12 275.594 32.04 273.93 29.544C272.33 27.048 271.53 23.88 271.53 20.04C271.53 16.328 272.522 13.032 274.506 10.152C276.554 7.272 279.434 5 283.146 3.336C286.922 1.672 291.402 0.839996 296.586 0.839996C300.746 0.839996 304.426 1.416 307.626 2.568C310.826 3.656 313.482 5.128 315.594 6.984C317.706 8.776 319.306 10.728 320.394 12.84C321.546 14.888 322.154 16.904 322.218 18.888C322.218 19.4 322.026 19.88 321.642 20.328C321.322 20.712 320.842 20.904 320.202 20.904H311.274C310.762 20.904 310.25 20.776 309.738 20.52C309.226 20.264 308.81 19.784 308.49 19.08C308.106 17.096 306.858 15.4 304.746 13.992C302.634 12.584 299.914 11.88 296.586 11.88C293.13 11.88 290.346 12.52 288.234 13.8C286.122 15.08 285.066 17.064 285.066 19.752C285.066 21.544 285.578 23.048 286.602 24.264C287.69 25.416 289.386 26.44 291.69 27.336C294.058 28.232 297.162 29.192 301.002 30.216C306.442 31.432 310.89 32.84 314.346 34.44C317.802 36.04 320.33 38.088 321.93 40.584C323.53 43.016 324.33 46.12 324.33 49.896C324.33 54.12 323.178 57.736 320.874 60.744C318.634 63.688 315.466 65.96 311.37 67.56C307.274 69.16 302.506 69.96 297.066 69.96ZM362.116 69.96C356.548 69.96 351.716 69.032 347.62 67.176C343.524 65.256 340.356 62.344 338.116 58.44C335.876 54.472 334.756 49.416 334.756 43.272V4.2C334.756 3.496 334.98 2.92 335.428 2.472C335.876 2.024 336.42 1.8 337.06 1.8H345.796C346.5 1.8 347.044 2.024 347.428 2.472C347.876 2.92 348.1 3.496 348.1 4.2V43.272C348.1 48.52 349.348 52.424 351.844 54.984C354.34 57.48 357.764 58.728 362.116 58.728C366.468 58.728 369.86 57.48 372.292 54.984C374.788 52.424 376.036 48.52 376.036 43.272V4.2C376.036 3.496 376.26 2.92 376.708 2.472C377.156 2.024 377.732 1.8 378.436 1.8H387.076C387.78 1.8 388.324 2.024 388.708 2.472C389.156 2.92 389.38 3.496 389.38 4.2V43.272C389.38 49.416 388.26 54.472 386.02 58.44C383.844 62.344 380.708 65.256 376.612 67.176C372.58 69.032 367.748 69.96 362.116 69.96Z" fill="#92C700"/>
</svg>
